<svg width="31" height="31" viewBox="0 0 31 31" fill="none" xmlns="http://www.w3.org/2000/svg">
<circle cx="15.5" cy="15.5" r="15.5" fill="#9F005D"/>
<path d="M12.0906 10C9.8312 10 8 11.7313 8 13.8675C8 17.5857 12.5619 21.1385 14.6931 22.7207C14.6951 22.7222 14.6972 22.7238 14.6992 22.7253C14.7138 22.7362 14.7337 22.7516 14.748 22.7623L14.7493 22.7611C14.9655 22.9156 15.229 22.9994 15.5 23C15.7714 22.9997 16.0354 22.9158 16.252 22.7611V22.7623C16.2562 22.7591 16.2624 22.755 16.2666 22.7519C16.2698 22.7495 16.2744 22.7462 16.2776 22.7438C16.2817 22.7403 16.2858 22.7369 16.2898 22.7334C18.4144 21.1569 23 17.5946 23 13.8675C23 11.7313 21.1688 10 18.9094 10C16.75 10 15.5 11.7727 15.5 11.7727C15.5 11.7727 14.25 10 12.0906 10Z" fill="white"/>
</svg>
