<svg width="24" height="24" viewBox="0 0 24 24" fill="none" xmlns="http://www.w3.org/2000/svg">
<path d="M2 0C1.46957 0 0.960859 0.210714 0.585786 0.585786C0.210714 0.960859 0 1.46957 0 2V8C0.000650781 8.41423 0.129905 8.81804 0.36991 9.15566C0.609915 9.49327 0.948829 9.74804 1.33984 9.88477C1.55185 9.96003 1.77503 9.99899 2 10C2.00716 10 2.01432 10 2.02148 10L14 12L2.02148 14.002C2.01433 14.0013 2.00716 14.0006 2 14C1.77438 14.0008 1.55051 14.0398 1.33789 14.1152C0.947241 14.2523 0.608749 14.5072 0.369113 14.8448C0.129477 15.1824 0.000508729 15.586 0 16V22C0 22.5304 0.210714 23.0391 0.585786 23.4142C0.960859 23.7893 1.46957 24 2 24C2.34821 23.9993 2.69022 23.9078 2.99219 23.7344H2.99414L23.3906 12.9219L23.3926 12.918C23.5725 12.8412 23.726 12.7132 23.834 12.5501C23.9419 12.3869 23.9997 12.1957 24 12C24.0003 11.8035 23.9426 11.6112 23.8342 11.4472C23.7258 11.2833 23.5716 11.1549 23.3906 11.0781L2.99414 0.265625C2.6916 0.0918909 2.34888 0.000318242 2 0V0Z" fill="white"/>
</svg>
